<?xml version="1.0" encoding="utf-8"?>
<!-- Generator: Adobe Illustrator 22.1.0, SVG Export Plug-In . SVG Version: 6.00 Build 0)  -->
<svg version="1.1" id="图层_1" xmlns="http://www.w3.org/2000/svg" xmlns:xlink="http://www.w3.org/1999/xlink" x="0px" y="0px"
	 viewBox="0 0 100 100" style="enable-background:new 0 0 100 100;" xml:space="preserve">
<style type="text/css">
	.st0{fill:#FFFFFF;}
	.st1{fill:#999999;}
	.st2{fill:#FAFAFA;}
	.st3{opacity:0.4;fill:#999999;}
</style>
<g>
	<g>
		<path class="st0" d="M13.2,75.6c0,0.7-0.7,1.3-1.6,1.3l0,0c-0.9,0-1.6-0.6-1.6-1.3v-9.8c0-0.7,0.7-1.3,1.6-1.3l0,0
			c0.9,0,1.6,0.6,1.6,1.3V75.6z"/>
		<path class="st1" d="M11.6,77.4c-1.2,0-2.1-0.8-2.1-1.8v-9.8c0-1,0.9-1.8,2.1-1.8s2.1,0.8,2.1,1.8v9.8
			C13.7,76.6,12.8,77.4,11.6,77.4z M11.6,65.1c-0.6,0-1.1,0.4-1.1,0.8v9.8c0,0.4,0.5,0.8,1.1,0.8s1.1-0.4,1.1-0.8v-9.8
			C12.7,65.4,12.2,65.1,11.6,65.1z"/>
	</g>
	<g>
		<path class="st0" d="M53.7,75.3c0,0.9-0.7,1.6-1.6,1.6l0,0c-0.9,0-1.6-0.7-1.6-1.6V62.9c0-0.9,0.7-1.6,1.6-1.6l0,0
			c0.9,0,1.6,0.7,1.6,1.6V75.3z"/>
		<path class="st1" d="M52.1,77.4c-1.2,0-2.1-0.9-2.1-2.1V62.9c0-1.2,0.9-2.1,2.1-2.1c1.2,0,2.1,0.9,2.1,2.1v12.4
			C54.2,76.4,53.3,77.4,52.1,77.4z M52.1,61.8c-0.6,0-1.1,0.5-1.1,1.1v12.4c0,0.6,0.5,1.1,1.1,1.1s1.1-0.5,1.1-1.1V62.9
			C53.2,62.3,52.7,61.8,52.1,61.8z"/>
	</g>
	<g>
		<path class="st2" d="M59,61.6c0,1.9-1.6,3.5-3.5,3.5H7.6c-1.9,0-3.5-1.6-3.5-3.5l0,0c0-1.9,1.6-3.5,3.5-3.5h47.9
			C57.5,58.1,59,59.6,59,61.6L59,61.6z"/>
		<path class="st1" d="M55.5,65.6H7.6c-2.2,0-4-1.8-4-4c0-2.2,1.8-4,4-4h47.9c2.2,0,4,1.8,4,4C59.5,63.8,57.7,65.6,55.5,65.6z
			 M7.6,58.6c-1.7,0-3,1.3-3,3c0,1.7,1.3,3,3,3h47.9c1.7,0,3-1.3,3-3c0-1.7-1.3-3-3-3H7.6z"/>
	</g>
	<g>
		<path class="st0" d="M16.5,76.2c0,0.9-0.7,1.6-1.6,1.6H8.3c-0.9,0-1.6-0.7-1.6-1.6l0,0c0-0.9,0.7-1.6,1.6-1.6h6.6
			C15.8,74.6,16.5,75.3,16.5,76.2L16.5,76.2z"/>
		<path class="st1" d="M14.9,78.3H8.3c-1.2,0-2.1-0.9-2.1-2.1s0.9-2.1,2.1-2.1h6.6c1.2,0,2.1,0.9,2.1,2.1S16.1,78.3,14.9,78.3z
			 M8.3,75.1c-0.6,0-1.1,0.5-1.1,1.1s0.5,1.1,1.1,1.1h6.6c0.6,0,1.1-0.5,1.1-1.1s-0.5-1.1-1.1-1.1H8.3z"/>
	</g>
	<g>
		<path class="st0" d="M57,76.2c0,0.9-0.7,1.6-1.6,1.6h-6.6c-0.9,0-1.6-0.7-1.6-1.6l0,0c0-0.9,0.7-1.6,1.6-1.6h6.6
			C56.3,74.6,57,75.3,57,76.2L57,76.2z"/>
		<path class="st1" d="M55.4,78.3h-6.6c-1.2,0-2.1-0.9-2.1-2.1s0.9-2.1,2.1-2.1h6.6c1.2,0,2.1,0.9,2.1,2.1S56.6,78.3,55.4,78.3z
			 M48.8,75.1c-0.6,0-1.1,0.5-1.1,1.1s0.5,1.1,1.1,1.1h6.6c0.6,0,1.1-0.5,1.1-1.1s-0.5-1.1-1.1-1.1H48.8z"/>
	</g>
	<polygon class="st3" points="11.3,58.4 13.6,64.9 19.4,64.9 17.3,58.4 	"/>
	<polygon class="st3" points="22.8,58.4 25.1,64.9 30.8,64.9 28.8,58.4 	"/>
	<polygon class="st3" points="34.3,58.4 36.6,64.9 42.3,64.9 40.2,58.4 	"/>
	<polygon class="st3" points="45.7,58.4 48.1,64.9 53.8,64.9 51.7,58.4 	"/>
</g>
<g>
	<path class="st0" d="M61.1,61.9c0,0-3.1-1.3-3.6-0.4s0.1,1.8,0.4,2c0.3,0.2-3.3,1.9-2.7,3.4s2.3,2.6,5.3,1s4.3-3.6,4.3-3.6
		s3-1.2,6.9-2.9c3.9-1.7,6.5-3.6,6.5-3.6l-10.9-0.4C67.3,57.4,62.7,61.9,61.1,61.9z"/>
	<path class="st1" d="M58,69.1c-0.4,0-0.8-0.1-1.1-0.2c-0.9-0.3-1.6-1-2-1.9c-0.6-1.4,1.1-2.7,2.2-3.4c0.1-0.1,0.2-0.1,0.3-0.2
		c-0.4-0.5-0.6-1.4-0.2-2.2c0.6-1.1,3-0.3,4.1,0.2c1.1-0.2,4-2.6,5.8-4.4l0.2-0.1l12.6,0.4l-1.2,0.9c-0.1,0.1-2.8,2-6.6,3.7
		c-3.4,1.5-6.1,2.6-6.8,2.9c-0.4,0.5-1.7,2.3-4.4,3.7C59.8,68.9,58.8,69.1,58,69.1z M58.2,61.6c-0.1,0-0.2,0-0.3,0.1
		c-0.3,0.6,0.1,1.2,0.3,1.3l0.2,0.2l0,0.3c0,0.3-0.3,0.5-0.9,1c-0.7,0.5-2.1,1.5-1.9,2.2c0.2,0.5,0.6,1.1,1.4,1.4
		c0.8,0.3,1.9,0.1,3.2-0.6c2.8-1.5,4.1-3.4,4.1-3.4l0.1-0.1l0.1-0.1c0,0,3.1-1.2,6.9-2.9c2.2-1,4-2,5.1-2.7l-9.1-0.3
		c-1.1,1-4.8,4.5-6.4,4.5l-0.1,0l-0.1,0C59.9,61.9,58.8,61.6,58.2,61.6z"/>
</g>
<g>
	<path class="st2" d="M63.2,64.9c-0.4-0.2-4.9-1.6-7.7-2.5c0.1-1.9-0.9-3.7-2.7-4.5c-1.3-0.6-2.6-0.5-3.8,0l3.3,1.5l0.3,3.5
		l-2.9,2.1l-3.3-1.5c0.4,1.2,1.3,2.3,2.5,2.9c1.8,0.8,3.8,0.4,5.1-0.9c2.5,1.6,6.3,4,6.9,4.3c0.6,0.3,2.1,0,2.9-1.7
		C64.5,66.5,63.8,65.2,63.2,64.9z M62.7,67.7c-0.3,0.7-1.1,1-1.8,0.7c-0.7-0.3-1-1.1-0.7-1.8c0.3-0.7,1.1-1,1.8-0.7
		C62.7,66.2,63,67,62.7,67.7z"/>
	<path class="st1" d="M61.4,70.4c-0.3,0-0.5,0-0.7-0.1c-0.5-0.3-3.8-2.3-6.6-4.1c-1.5,1.2-3.6,1.5-5.4,0.7c-1.3-0.6-2.4-1.8-2.8-3.2
		l-0.3-1.1l4,1.8l2.4-1.7l-0.3-3l-4-1.8l1-0.4c1.3-0.6,2.9-0.6,4.2,0c1.8,0.8,3,2.6,3,4.6c6.9,2.2,7.3,2.4,7.4,2.4l0,0
		c0.9,0.4,1.7,2,0.8,3.9c-0.4,0.9-1.1,1.6-2,1.9C62,70.3,61.7,70.4,61.4,70.4z M54,64.8l0.3,0.2c3.9,2.5,6.4,4.1,6.8,4.3
		c0.1,0,0.4,0.1,0.8-0.1c0.3-0.1,1-0.5,1.4-1.4c0.6-1.4,0-2.4-0.4-2.5c-0.1-0.1-1.2-0.4-7.7-2.5l-0.4-0.1l0-0.4
		c0.1-1.7-0.8-3.3-2.4-4c-0.7-0.3-1.4-0.4-2.1-0.4l2.3,1l0.4,4.1l-3.4,2.4l-2.3-1c0.4,0.6,1,1.1,1.7,1.4c1.5,0.7,3.3,0.4,4.6-0.8
		L54,64.8z M61.5,69c-0.3,0-0.5-0.1-0.8-0.2c-0.9-0.4-1.3-1.6-0.9-2.5c0.4-0.9,1.6-1.3,2.5-0.9c0.5,0.2,0.8,0.6,1,1.1
		c0.2,0.5,0.2,1-0.1,1.4l0,0C62.8,68.6,62.2,69,61.5,69z M61.5,66.2c-0.3,0-0.6,0.2-0.8,0.5c-0.2,0.4,0,1,0.4,1.2
		c0.4,0.2,1,0,1.2-0.4l0,0c0.1-0.2,0.1-0.4,0-0.7c-0.1-0.2-0.2-0.4-0.5-0.5C61.7,66.2,61.6,66.2,61.5,66.2z"/>
</g>
<g>
	<path class="st0" d="M91.1,20c-6-11.6-21.8-15.3-35.2-8.4s-19.4,22-13.3,33.6c5.4,10.4,23.5,15.5,33.7,13c-0.1,0.1-0.3,0.2-0.4,0.3
		c-1.7,5.9-7.7,9.3-12,6.6C60,62.8,61,66,61,66s-4.7,0.6-3.7,3.8c2.2,6.9,19.7-3.5,21-5.4c0,0-5.4,8.9-4.6,13.4
		c0.4,2.4,7.1,4.4,7.1,4.4s-4.5,4.9-4.6,6.4c-0.1,1.4,1.2,2,1.6,1.9c0.4-0.1-0.4,1.4,0.9,1.7c1.1,0.2,3.7-4,5.3-6.1
		c1.6-2.2,2-3.3,1.3-4.1c-0.9-1.1-7.9-2.8-2.6-5.3c3.1-1.4,6.1,0.1,6.1,0.1s-2.8,3.5-0.5,4.8c1.3,0.7,2.1-0.4,2.1-0.4s0.9,1.6,2.6,0
		c0.9-0.9,3.7-6.8,2.4-7.5c-2.7-1.5-8.7-2.1-8.7-2.1S85.3,53,82.8,55c-0.1,0.1-0.2,0.1-0.4,0.1C90.6,48,96.5,30.4,91.1,20z"/>
	<path class="st1" d="M78.9,92.7c-0.1,0-0.1,0-0.2,0c-1.1-0.2-1.2-1.2-1.2-1.7c-0.3-0.1-0.7-0.2-0.9-0.5c-0.6-0.5-0.8-1.2-0.8-2
		c0.1-1.3,2.9-4.6,4.2-6.1c-1.9-0.6-6.4-2.4-6.8-4.5c-0.6-3.2,1.8-8.5,3.4-11.5c-3.9,2.7-12,6.8-16.6,6.1c-1.7-0.3-2.8-1.1-3.3-2.6
		c-0.3-0.9-0.2-1.8,0.2-2.5c0.8-1.2,2.4-1.7,3.3-1.9c-0.1-0.5,0-1.2,0.5-1.6c0.6-0.5,1.7-0.3,3.3,0.7c1.6,1,3.5,1.1,5.5,0.4
		c2.5-1,4.7-3.3,5.6-6.2c-11,2-28-3.6-33.2-13.5C35.9,33.6,42,18.2,55.7,11.2c13.6-7.1,29.7-3.2,35.9,8.6l0,0
		c5.2,10,0.1,27-7.8,34.8c2,1.5,3.2,12.5,3.5,16.5c1.4,0.2,6.1,0.8,8.5,2.1c0.2,0.1,0.5,0.4,0.6,1c0.2,1.9-1.9,6.5-2.9,7.3
		c-0.7,0.7-1.4,0.9-2.1,0.8c-0.4-0.1-0.7-0.2-0.9-0.4c-0.5,0.4-1.3,0.6-2.3,0.1c-0.6-0.3-1-0.9-1.1-1.5c-0.3-1.3,0.6-2.8,1.1-3.5
		c-0.9-0.3-3-0.8-5.1,0.1c-1.5,0.7-1.7,1.2-1.7,1.4c0,0.6,1.6,1.5,2.6,2c0.8,0.4,1.5,0.8,1.8,1.2c1,1.2,0.3,2.6-1.3,4.7
		c-0.3,0.4-0.6,0.9-1,1.4C81.5,90.7,80,92.7,78.9,92.7z M78,89.9c0.1,0,0.3,0,0.4,0.1c0.3,0.2,0.2,0.5,0.2,0.8c0,0.6,0,0.7,0.4,0.8
		c0,0,0,0,0,0c0.7,0,2.8-3.1,3.8-4.5c0.4-0.5,0.7-1,1-1.4c1.6-2.3,1.7-3,1.3-3.5c-0.2-0.2-0.9-0.6-1.5-0.9c-1.5-0.8-3.2-1.6-3.2-2.9
		c0-0.8,0.7-1.6,2.3-2.3c3.3-1.5,6.4,0.1,6.5,0.1l0.5,0.3L89.3,77c-0.4,0.5-1.5,2.2-1.3,3.2c0.1,0.4,0.3,0.6,0.7,0.8
		c0.9,0.5,1.3-0.1,1.4-0.2l0.5-0.6l0.4,0.7l0,0c0,0,0.2,0.4,0.6,0.4c0.3,0,0.8-0.1,1.2-0.6c0.7-0.6,2.6-4.6,2.6-6.3
		c0-0.3-0.1-0.4-0.1-0.4c-2.6-1.5-8.4-2.1-8.5-2.1l-0.4,0l0-0.4c-0.7-8.5-2.2-16-3.2-16.2c-0.2,0.2-0.4,0.2-0.5,0.2l-2.1,0.6
		l1.6-1.4c8.2-7.1,13.8-24.5,8.5-34.5l0,0C84.7,8.9,69.3,5.2,56.1,12C43,18.9,37.1,33.7,43,45c4.3,8.3,20.5,15.8,33.2,12.8l2.1-0.5
		l-1.7,1.4c-0.1,0-0.1,0.1-0.2,0.1c0,0,0,0,0,0c-1,3.4-3.4,6.1-6.4,7.3c-2.2,0.9-4.5,0.7-6.4-0.5c-1.7-1.1-2.1-0.8-2.1-0.8
		c-0.2,0.1-0.1,0.7,0,1l0.2,0.6l-0.6,0.1c0,0-2.3,0.3-3.1,1.5c-0.3,0.5-0.3,1-0.1,1.6c0.4,1.1,1.2,1.7,2.5,1.9
		c5.3,0.8,16.6-6,17.7-7.5l0.8,0.5c-0.1,0.1-5.3,8.8-4.5,13.1c0.3,1.5,4.3,3.2,6.8,4l0.8,0.2l-0.5,0.6c-1.8,2-4.4,5.2-4.5,6.1
		c0,0.4,0.1,0.8,0.3,1c0.3,0.3,0.6,0.4,0.7,0.4C77.9,90,77.9,89.9,78,89.9z M76.4,58.7C76.4,58.7,76.4,58.7,76.4,58.7
		C76.4,58.7,76.4,58.7,76.4,58.7z"/>
</g>
<g>
	
		<ellipse transform="matrix(0.9996 -2.734614e-02 2.734614e-02 0.9996 -0.993 1.7182)" class="st0" cx="62.3" cy="37.2" rx="6.3" ry="9"/>
	<path class="st1" d="M62.4,46.6c-1.8,0-3.5-1-4.8-2.7c-1.3-1.7-2.1-4.1-2.1-6.6s0.6-4.9,1.8-6.7c1.2-1.9,3-2.9,4.8-3
		c0,0,0.1,0,0.1,0c3.7,0,6.8,4.1,7,9.3c0.1,2.5-0.6,4.9-1.8,6.7c-1.2,1.9-3,2.9-4.8,3l0,0C62.5,46.6,62.5,46.6,62.4,46.6z
		 M62.2,28.7c0,0-0.1,0-0.1,0c-1.5,0-3,0.9-4,2.5c-1.1,1.6-1.7,3.8-1.6,6.1c0.1,2.3,0.7,4.4,1.9,6c1.1,1.5,2.6,2.4,4.1,2.3l0,0
		c1.5,0,3-0.9,4-2.5c1.1-1.6,1.7-3.8,1.6-6.1C68,32.4,65.4,28.7,62.2,28.7z"/>
</g>
<path class="st3" d="M63.1,28.5c0,0,5.1,4.1,3.3,10.5c-2.8,9.8-9.7,1.6-9.4,2.6c0,0,2.7,4.9,6.4,4.4C69.1,45.2,71.4,31.8,63.1,28.5z
	"/>
<path class="st3" d="M86.7,14.2c-6.5-6.7-18.1-7-25.1-4.9c-13.4,4.1-20.9,18.4-19.9,18.8c3-6.8,29.8-29.3,44.7-7.6
	c11.7,17-4.9,34.9-5.1,35.1c0.8-0.8,1-0.5,1-0.5C82.8,55.5,103.7,31.6,86.7,14.2z"/>
</svg>
